<?xml version="1.0" encoding="utf-8"?>
<svg viewBox="94.136 115.25 138.966 207.143" xmlns="http://www.w3.org/2000/svg">
  <g>
    <title>Grid</title>
    <path d="M 140 130 C 140 135.523 135.523 140 130 140 L 126.753 140 C 130.425 134.896 134.916 130.56 140 127.243 Z M 184 130 C 184 135.523 179.523 140 174 140 L 171.064 140 C 168.796 139.401 166.431 139.084 164.001 139.084 L 163.999 139.084 C 161.881 139.084 159.811 139.326 157.812 139.785 C 157.52 139.852 157.229 139.924 156.94 140 L 154 140 C 148.477 140 144 135.523 144 130 L 144 124.91 C 150.087 121.759 156.863 120 163.999 120 L 164.001 120 C 171.137 120 177.913 121.759 184 124.909 Z M 198 140 C 192.477 140 188 135.523 188 130 L 188 127.242 C 193.085 130.559 197.576 134.896 201.249 140 Z M 130 144 C 134.918 144 139.007 147.55 139.843 152.228 C 135.719 158.083 133.256 165.468 133.256 173.485 L 133.256 174.058 L 116.2 174.058 L 116.2 173.485 C 116.2 162.597 119.123 152.458 124.137 144 Z M 198 144 L 203.865 144 C 208.878 152.459 211.801 162.597 211.801 173.485 L 211.801 184 L 198 184 C 196.861 184 195.766 183.81 194.746 183.459 L 194.746 173.485 C 194.746 165.467 192.282 158.081 188.157 152.226 C 188.994 147.549 193.083 144 198 144 Z M 140 218 C 140 223.523 135.523 228 130 228 L 110 228 C 104.477 228 100 223.523 100 218 L 100 207.771 C 101.636 203.976 105.107 201.357 109.126 201.357 L 140 201.357 Z M 184 218 C 184 223.523 179.523 228 174 228 L 154 228 C 148.477 228 144 223.523 144 218 L 144 201.357 L 184 201.357 Z M 198 188 L 211.801 188 L 211.801 201.357 L 218.874 201.357 C 222.892 201.357 226.364 203.976 228 207.772 L 228 218 C 228 223.523 223.523 228 218 228 L 198 228 C 192.477 228 188 223.523 188 218 L 188 201.357 L 194.746 201.357 L 194.746 188.541 C 195.766 188.19 196.861 188 198 188 Z M 110 232 L 130 232 C 135.523 232 140 236.477 140 242 L 140 262 C 140 267.523 135.523 272 130 272 L 110 272 C 104.477 272 100 267.523 100 262 L 100 242 C 100 236.477 104.477 232 110 232 Z M 154 232 L 174 232 C 179.523 232 184 236.477 184 242 L 184 262 C 184 267.523 179.523 272 174 272 L 172.433 272 L 170.513 261.763 C 173.908 259.345 176.176 255.123 176.176 250.286 C 176.176 242.761 170.725 236.662 163.999 236.662 C 157.274 236.662 151.823 242.762 151.823 250.286 C 151.823 255.123 154.091 259.345 157.487 261.763 L 155.567 272 L 154 272 C 148.477 272 144 267.523 144 262 L 144 242 C 144 236.477 148.477 232 154 232 Z M 198 232 L 218 232 C 223.523 232 228 236.477 228 242 L 228 262 C 228 267.523 223.523 272 218 272 L 198 272 C 192.477 272 188 267.523 188 262 L 188 242 C 188 236.477 192.477 232 198 232 Z M 110 276 L 130 276 C 135.523 276 140 280.477 140 286 L 140 306 C 140 311.523 135.523 316 130 316 L 110 316 C 104.477 316 100 311.523 100 306 L 100 286 C 100 280.477 104.477 276 110 276 Z M 154 276 L 154.816 276 L 153.855 281.123 L 174.144 281.123 L 173.183 276 L 174 276 C 179.523 276 184 280.477 184 286 L 184 306 C 184 311.523 179.523 316 174 316 L 154 316 C 148.477 316 144 311.523 144 306 L 144 286 C 144 280.477 148.477 276 154 276 Z M 198 276 L 218 276 C 223.523 276 228 280.477 228 286 L 228 306 C 228 311.523 223.523 316 218 316 L 198 316 C 192.477 316 188 311.523 188 306 L 188 286 C 188 280.477 192.477 276 198 276 Z" style="stroke: rgb(0, 0, 0); fill: rgb(247, 255, 255);"/>
  </g>
  <g transform="matrix(0.327295, 0, 0, 0.366211, 120, 120)"/>
  <g transform="matrix(0.327295, 0, 0, 0.366211, 120, 120)"/>
  <g transform="matrix(0.327295, 0, 0, 0.366211, 120, 120)"/>
  <g transform="matrix(0.327295, 0, 0, 0.366211, 120, 120)"/>
  <g transform="matrix(0.327295, 0, 0, 0.366211, 120, 120)"/>
  <g transform="matrix(0.327295, 0, 0, 0.366211, 120, 120)"/>
  <g transform="matrix(0.327295, 0, 0, 0.366211, 120, 120)"/>
  <g transform="matrix(0.327295, 0, 0, 0.366211, 120, 120)"/>
  <g transform="matrix(0.327295, 0, 0, 0.366211, 120, 120)"/>
  <g transform="matrix(0.327295, 0, 0, 0.366211, 120, 120)"/>
  <g transform="matrix(0.327295, 0, 0, 0.366211, 120, 120)"/>
  <g transform="matrix(0.327295, 0, 0, 0.366211, 120, 120)"/>
  <g transform="matrix(0.327295, 0, 0, 0.366211, 120, 120)"/>
  <g transform="matrix(0.327295, 0, 0, 0.366211, 120, 120)"/>
  <g transform="matrix(0.327295, 0, 0, 0.366211, 120, 120)"/>
</svg>
